<svg xmlns="http://www.w3.org/2000/svg" viewBox="0 0 22 22"><defs><style>.e697d5ad-30cb-4c0a-9926-ca2ae2a47b06{fill:#cb9d81}</style></defs><g id="36abad58-e1e5-4b23-987f-c1f8c73d0daf" data-name="Layer 2"><g id="c2dccc2b-e21d-49a0-860e-0dc2d90eb475" data-name="Layer 1"><path d="M20 14v2a3 3 0 0 1-3 3H5a3 3 0 0 1-3-3v-2h18m2-2H0v4a5 5 0 0 0 5 5h12a5 5 0 0 0 5-5v-4zM8 8a3 3 0 0 1 6 0" class="e697d5ad-30cb-4c0a-9926-ca2ae2a47b06"/><path d="M22 12h-2c0-7.91-3.92-10-6-10a1.89 1.89 0 0 0-2 2h-2a3.89 3.89 0 0 1 4-4c3.85 0 8 3.75 8 12zM1.38 22h2.24l1.27-2.55-1.79-.9L1.38 22zM18.89 18.55l-1.78.9L18.38 22h2.24l-1.73-3.45z" class="e697d5ad-30cb-4c0a-9926-ca2ae2a47b06"/></g></g></svg>